<?xml version="1.0" standalone="no"?>
<!DOCTYPE svg PUBLIC "-//W3C//DTD SVG 20010904//EN"
 "http://www.w3.org/TR/2001/REC-SVG-20010904/DTD/svg10.dtd">
<svg version="1.0" xmlns="http://www.w3.org/2000/svg"
 width="1100.000000pt" height="1100.000000pt" viewBox="0 0 1100.000000 1100.000000"
 preserveAspectRatio="xMidYMid meet">
<metadata>
Created by potrace 1.11, written by Peter Selinger 2001-2013
</metadata>
<g transform="translate(0.000000,1100.000000) scale(0.100000,-0.100000)"
fill="#000000" stroke="none">
<path d="M6060 10819 c0 -3 7 -28 15 -55 8 -27 17 -67 21 -89 3 -22 7 -42 9
-45 2 -3 6 -30 10 -60 3 -30 8 -68 10 -85 6 -42 7 -282 1 -325 -2 -19 -7 -62
-11 -95 -18 -171 -74 -427 -142 -640 -54 -174 -194 -542 -253 -670 -10 -22
-40 -87 -65 -145 -99 -223 -339 -711 -475 -965 -23 -44 -63 -118 -88 -165 -54
-102 -224 -415 -262 -485 -15 -27 -45 -81 -65 -120 -21 -38 -46 -84 -56 -102
-10 -18 -35 -63 -55 -100 -21 -37 -57 -103 -81 -145 -23 -43 -43 -80 -43 -84
0 -3 -8 -18 -18 -32 -11 -15 -43 -72 -72 -127 -29 -55 -56 -104 -60 -110 -4
-5 -24 -41 -44 -80 -20 -38 -41 -77 -46 -85 -9 -15 -65 -117 -155 -285 -26
-49 -60 -112 -75 -140 -311 -578 -593 -1135 -818 -1615 -17 -36 -53 -114 -81
-174 -28 -59 -51 -110 -51 -111 0 -2 -18 -42 -40 -89 -22 -47 -40 -88 -40 -90
0 -3 -16 -39 -35 -80 -19 -42 -35 -78 -35 -81 0 -2 -11 -28 -24 -57 -28 -63
-176 -416 -176 -422 0 -2 -8 -21 -17 -42 -9 -22 -18 -43 -19 -49 -1 -5 -14
-39 -29 -75 -105 -257 -365 -1004 -399 -1145 -1 -5 -14 -48 -28 -95 -56 -181
-119 -420 -124 -471 -3 -30 -8 -57 -10 -61 -9 -15 -4 -196 6 -248 57 -272 246
-489 501 -574 146 -49 291 -52 452 -11 106 27 265 122 348 208 8 8 77 81 154
163 171 183 804 815 904 904 140 124 156 137 222 181 89 60 96 64 159 95 122
58 266 102 390 118 53 7 254 8 290 2 14 -3 54 -10 90 -16 228 -40 464 -166
636 -337 68 -68 184 -212 184 -228 0 -4 8 -19 18 -33 49 -73 115 -252 148
-407 10 -50 14 -317 4 -365 -4 -25 -10 -58 -13 -75 -7 -45 -26 -114 -48 -173
-10 -29 -19 -56 -19 -60 0 -4 178 -7 395 -7 217 0 395 1 395 3 0 2 -11 41 -25
86 -30 100 -76 290 -89 371 -34 210 -46 353 -45 555 0 199 5 280 24 416 14
105 22 149 40 234 2 14 10 50 16 80 60 288 206 643 394 958 50 84 189 276 279
387 80 99 75 92 137 185 173 261 308 544 395 825 36 117 88 330 99 405 3 25 8
52 10 60 2 8 7 40 10 70 3 30 8 66 10 80 21 142 22 578 1 686 -2 10 -7 48 -11
84 -4 36 -8 67 -10 70 -2 3 -6 28 -9 55 -4 28 -9 57 -11 65 -2 8 -7 31 -10 50
-3 19 -10 49 -15 65 -5 17 -11 41 -14 55 -3 14 -12 50 -21 80 -9 30 -18 62
-20 70 -11 47 -73 218 -107 300 -158 374 -387 721 -662 1004 -58 60 -106 110
-106 111 0 2 -32 36 -70 76 -87 92 -172 218 -221 328 l-37 84 -20 -39 c-33
-66 -78 -206 -89 -279 -2 -16 -8 -47 -13 -68 -13 -60 -5 -314 14 -402 33 -164
101 -326 189 -454 l54 -79 -62 -1 c-256 -4 -489 -131 -634 -347 -22 -34 -41
-67 -41 -74 0 -27 -11 -1 -30 76 -105 410 -411 739 -807 869 -46 15 -83 29
-83 31 0 7 45 112 83 194 19 41 51 113 72 160 20 47 42 99 50 115 261 600 478
1266 520 1594 4 37 13 98 20 139 17 104 23 375 11 493 -37 354 -159 628 -387
863 -38 39 -69 68 -69 65z m-292 -3945 c156 -310 273 -684 307 -976 3 -25 8
-57 10 -69 26 -132 26 -600 0 -784 -12 -89 -25 -172 -29 -190 -3 -11 -12 -54
-21 -95 -44 -206 -226 -768 -320 -985 -7 -16 -34 -81 -59 -142 -74 -181 -199
-443 -262 -553 -95 -164 -210 -336 -258 -386 -6 -6 -27 -29 -47 -50 -71 -77
-250 -232 -374 -326 -66 -49 -242 -168 -249 -168 -2 0 -39 -20 -80 -45 -42
-25 -83 -45 -91 -45 -7 0 -16 -4 -19 -9 -3 -5 -45 -23 -94 -41 -92 -34 -141
-35 -237 -8 -82 24 -187 99 -239 170 -55 76 -63 266 -20 443 14 56 133 377
175 472 11 23 19 47 19 53 0 5 4 18 10 28 5 9 48 109 94 222 129 315 240 571
389 900 14 30 35 78 47 105 71 157 103 225 233 500 138 293 190 401 272 570
43 88 103 214 135 280 32 66 113 233 180 370 67 138 144 295 170 350 26 55 76
159 110 230 34 72 85 177 112 234 57 121 46 126 136 -55z"/>
</g>
</svg>
